<svg width="176" height="80" viewBox="0 0 176 80" fill="none" xmlns="http://www.w3.org/2000/svg">
<g clip-path="url(#clip0_5635_362078)">
<path d="M10.4969 0L0 62.5527H6.37246L16.8694 0H10.4969Z" fill="white"/>
<path d="M30.1955 15.4736C25.3281 15.4736 21.1083 17.9143 18.1079 22.4144C14.1739 28.4208 11.6401 38.0788 11.6401 47.4508C11.6401 57.4901 15.9456 63.3916 23.4421 63.3916C34.12 63.3916 41.8069 50.3586 41.8069 32.0724C41.8069 21.2894 37.7777 15.4736 30.186 15.4736H30.1955ZM32.072 49.7961C30.1003 55.24 27.2903 58.0526 23.9183 58.0526C20.2606 58.0526 18.2031 54.5822 18.2031 48.5853C18.2031 42.5884 19.6986 33.7694 21.7656 28.4208C23.5468 23.549 26.4521 20.8222 29.9193 20.8222C33.577 20.8222 35.263 23.8254 35.263 30.2895C35.263 37.3256 34.139 44.0757 32.0815 49.7961H32.072Z" fill="white"/>
<path d="M82.9565 0H76.584L75.4029 7.03611C74.1836 6.75009 73.5264 6.65475 72.4024 6.65475C67.4397 6.65475 65.0012 9.1908 63.0294 16.3127C60.5909 15.6549 59.7527 15.4737 58.162 15.4737C49.5415 15.4737 43.2643 22.691 43.2643 32.7303C43.2643 36.5725 44.293 39.5757 46.541 42.3883C41.4831 45.2961 39.4256 48.3947 39.4256 52.7994C39.4256 55.4213 40.0828 57.1088 41.8641 59.0823C36.9966 61.8949 35.1201 64.7074 35.1201 69.3982C35.1201 76.2436 40.3686 80 49.9225 80C60.6004 80 67.5349 74.4607 67.5349 66.0231C67.5349 64.7456 67.3444 63.6205 67.0777 62.5527H72.469L82.9565 0ZM57.4952 20.8223C61.0577 20.8223 62.8389 23.7302 62.8389 29.3553C62.8389 37.0492 60.0289 41.74 55.533 41.74C51.7895 41.74 49.8177 38.6414 49.8177 32.921C49.8177 25.7895 52.9992 20.8223 57.5047 20.8223H57.4952ZM50.656 75.0328C44.474 75.0328 41.1973 72.6874 41.1973 68.092C41.1973 64.6216 42.5975 62.2762 45.5028 60.8747C47.5602 61.3419 49.1605 61.4373 53.0945 61.4373C56.2855 61.4373 57.4095 61.6279 58.6287 62.2762C60.1242 63.1152 60.9719 64.8123 60.9719 66.8716C60.9719 71.8389 56.9427 75.0328 50.6655 75.0328H50.656ZM66.4014 60.665C64.563 56.7846 60.4099 54.7634 53.9327 54.7634C48.7795 54.7634 48.4937 54.6681 47.284 54.0102C46.0648 53.3524 45.5028 52.132 45.5028 50.6352C45.5028 48.471 46.722 46.4116 48.6842 45.0101C51.0275 46.507 52.904 47.079 55.5234 47.079C63.4866 47.079 69.4876 39.4804 69.4876 29.2599C69.4876 25.1317 68.3636 21.852 66.1156 19.3159C67.4301 14.158 68.7351 12.7565 72.3928 12.7565C73.1453 12.7565 73.6121 12.7565 74.3646 12.9472V12.9281L74.4122 12.9472L66.4014 60.6745V60.665Z" fill="white"/>
<path d="M83.2422 16.3223L75.46 62.5527H81.8324L89.6146 16.3223H83.2422Z" fill="white"/>
<path d="M108.818 15.4737C104.131 15.4737 101.226 17.6283 97.6636 23.9113L98.8828 16.3127H92.7961L85.0234 62.5431H91.3959L94.7679 42.6552C96.0824 34.7801 97.4826 30.0893 99.7306 26.4283C101.979 22.7767 104.417 20.8032 106.856 20.8032C109.475 20.8032 110.885 22.6814 110.885 26.1518C110.885 28.4971 110.609 31.3097 109.761 36.2769L105.36 62.5336H111.542L115.762 37.4019C116.695 31.7768 117.172 27.6486 117.172 25.3032C117.172 19.0203 114.076 15.4546 108.837 15.4546L108.818 15.4737Z" fill="white"/>
<path d="M176 16.7989C176 13.9196 173.666 11.5742 170.78 11.5742C167.894 11.5742 165.56 13.9101 165.56 16.7989C165.56 16.8275 165.579 16.8465 165.579 16.8751C163.931 15.9885 162.064 15.4736 159.969 15.4736C152.567 15.4736 147.033 21.2894 147.033 28.9738C147.033 34.9802 149.281 38.1646 156.216 41.635C161.369 44.2569 162.96 46.3257 162.96 50.2633C162.96 54.954 160.245 58.043 156.025 58.043C151.805 58.043 149.329 55.2591 147.9 49.3957H138.756C136.05 55.5547 133.479 58.043 129.764 58.043C124.896 58.043 122.553 53.9148 122.553 45.6679C122.553 43.7897 122.553 42.6647 122.744 40.224H145.604C146.071 35.4474 146.262 33.1879 146.262 30.9378C146.262 20.8127 142.137 15.4641 134.46 15.4641C129.592 15.4641 125.373 17.8095 122.001 22.5002C118.343 27.4674 115.904 36.7536 115.904 45.4772C115.904 56.918 120.781 63.3916 129.211 63.3916C135.241 63.3916 139.746 60.0261 142.909 53.2284C145.166 60.1215 149.291 63.3916 155.739 63.3916C163.988 63.3916 169.513 57.7666 169.513 49.3194C169.513 43.5037 166.979 39.6615 161.083 36.4676C158.27 34.9675 156.489 33.9061 155.739 33.2832C154.053 31.8722 153.11 29.9081 153.11 27.7535C153.11 23.8159 155.825 20.8127 159.388 20.8127C163.131 20.8127 164.731 22.4049 166.693 28.316L171.942 25.8753C171.342 24.1782 170.837 22.9292 170.332 21.9186C170.485 21.9282 170.608 22.0044 170.761 22.0044C173.637 22.0044 175.981 19.6686 175.981 16.7798L176 16.7989ZM133.812 20.8222C137.841 20.8222 139.813 23.7301 139.813 30.013C139.813 31.4241 139.718 32.5491 139.537 34.8849H123.696C125.573 25.3223 128.754 20.8222 133.812 20.8222ZM170.094 17.2088L169.732 19.373H168.58L169.503 13.891H171.17C172.352 13.891 172.856 14.3868 172.856 15.3688C172.856 16.1887 172.552 16.7321 171.818 17.0086L172.428 19.373H171.189L170.666 17.2088H170.094Z" fill="white"/>
<path d="M171.656 15.3496C171.656 14.892 171.418 14.7681 170.942 14.7681H170.504L170.247 16.303H170.723C171.313 16.303 171.647 15.9694 171.647 15.3496H171.656Z" fill="white"/>
<path d="M85.9948 0L84.4707 8.45668H90.8432L92.3672 0H85.9948Z" fill="white"/>
</g>
<defs>
<clipPath id="clip0_5635_362078">
<rect width="176" height="80" fill="white"/>
</clipPath>
</defs>
</svg>
