<?xml version="1.0" encoding="UTF-8"?>
<svg id="Layer_1" data-name="Layer 1" xmlns="http://www.w3.org/2000/svg" version="1.1" viewBox="0 0 300 121">
  <defs>
    <style>
      .cls-1 {
        fill: #063276;
        stroke-width: 0px;
      }
    </style>
  </defs>
  <path class="cls-1" d="M0,4.95c.21-.51.37-1.04.63-1.52C1.65,1.54,3.26.54,5.4.4c.12,0,.24,0,.36,0,17.02,0,34.05,0,51.07,0,2.87,0,5.17,1.85,5.67,4.55.52,2.78-1.07,5.44-3.85,6.49-.87.33-1.79.42-2.69.6-2.46.5-3.99,1.92-4.37,4.45-.13.87-.22,1.75-.26,2.62-.05,1-.05,2-.05,3,0,25.73,0,51.46,0,77.19,0,1.76,0,3.52.26,5.27.41,2.72,1.62,4.08,4.3,4.71,1.26.3,2.56.41,3.72,1.07,2.27,1.28,3.45,3.74,2.92,6.23-.51,2.41-2.56,4.15-5.15,4.38-.24.06-.48.03-.72.03-17.04,0-34.07,0-51.11,0-2.41.1-4-1.13-5.12-3.14-.26-.47-.22-1-.39-1.48v-2.04c.56-2.99,2.59-4.4,5.39-4.96,1-.2,2-.37,2.94-.83,1.2-.59,1.91-1.54,2.28-2.79.37-1.24.5-2.52.5-3.79.01-27.52.01-55.04,0-82.56,0-1.12-.14-2.23-.38-3.33-.43-1.92-1.61-3.12-3.5-3.66-.66-.19-1.33-.3-2-.42-1.95-.36-3.48-1.35-4.59-3.01-.41-.61-.51-1.29-.65-1.97,0-.68,0-1.36,0-2.04Z"/>
  <path class="cls-1" d="M299.47,82.46c-1.08-6.73-4.09-12.42-9.31-16.9-4.3-3.69-9.32-5.97-14.71-7.55-2.03-.59-4.1-1.06-6.19-1.44-.23-.03-.48-.05-.51-.31-.03-.32.27-.35.5-.41.39-.08.79-.16,1.18-.25,5.15-1.18,10.09-2.92,14.5-5.91,4.93-3.35,8.35-7.82,9.82-13.64,1.24-4.88,1.12-9.78-.07-14.66-1.33-5.46-4.3-9.83-8.84-13.13-3.34-2.42-7.09-3.99-11.03-5.11-6.2-1.77-12.56-2.38-18.97-2.65-3.22-.13-6.45-.11-9.67-.11-19.39,0-38.78,0-58.16,0-2.69,0-5.1,1.67-6.05,4.15-.95,2.49-.25,5.25,1.74,7.06,1.29,1.16,2.82,1.78,4.49,2.11,2.47.48,3.97,1.91,4.37,4.45.24,1.55.31,3.11.31,4.66v75.68c0,1.4-.07,2.8-.24,4.19-.29,2.32-1.31,4.04-3.69,4.73-.41.11-.81.19-1.23.29-2.63.62-4.76,1.95-5.76,4.57-1.57,4.06,1.29,8.31,5.75,8.66.19,0,.4-.03.59-.03h63.47c.2,0,.4.02.6.03.26,0,.52-.02.78-.02,6.21-.06,12.4-.43,18.52-1.57,4.95-.93,9.75-2.34,14.19-4.79,6.48-3.56,10.87-8.82,12.84-15.98,1.46-5.31,1.62-10.7.75-16.12ZM232.31,30.59v-11.82c0-.22,0-.44,0-.66.07-2.07.86-3.07,2.88-3.55,2.09-.48,4.22-.44,6.34-.33,2.39.11,4.72.56,6.9,1.58,3.63,1.7,5.91,4.56,6.78,8.42,1.19,5.37.92,10.69-1.28,15.8-1.71,3.94-4.89,6.2-8.98,7.28-2.57.69-5.21.84-7.85.71-2.64-.13-4.79-2.44-4.8-5.09,0-4.12,0-8.23,0-12.35ZM258.62,86.99c-.09,3.65-.44,7.26-1.56,10.75-.97,3.05-2.4,5.82-4.87,7.96-2.95,2.56-6.47,3.42-10.31,3.27-1.35-.05-2.67-.22-3.96-.62-3.09-.96-4.81-3.08-5.37-6.2-.19-.98-.25-1.98-.25-2.99v-28.14c0-2.83,2.06-5.1,4.87-5.24,3.6-.17,7.17.12,10.58,1.38,5.38,1.99,8.6,5.91,10.03,11.37.73,2.77.92,5.59.85,8.44Z"/>
  <path class="cls-1" d="M134.25,120.94c-.2,0-.4-.02-.6-.02-18.27,0-36.55,0-54.82,0-.2,0-.4.01-.6.02-2.59-.24-4.45-2.19-4.47-4.69-.02-2.52,1.94-4.63,4.56-4.94.67-.08,1.35-.19,2.01-.34,2.9-.64,4.16-2.04,4.52-4.97.18-1.47.24-2.95.24-4.43,0-26.69,0-53.38,0-80.06,0-1.72-.05-3.44-.34-5.14-.39-2.25-1.66-3.66-3.88-4.21-.78-.19-1.57-.3-2.35-.49-2.94-.7-4.88-3.17-4.75-6.02.14-2.81,2.45-5.11,5.27-5.26.16,0,.32,0,.48,0,28.5,0,57,0,85.5,0,3.35,0,6.1,2.14,6.89,5.33.13.55.19,1.1.19,1.66,0,7.5,0,15,0,22.51,0,2.7-1.72,4.82-4.3,5.28-2.43.44-4.86-1.02-5.81-3.45-1.07-2.78-2.27-5.49-3.82-8.05-2.79-4.63-6.94-7.08-12.23-7.8-2.81-.38-5.62-.5-8.45-.47-2.98.04-5.97-.12-8.95.1-.36.03-.72.08-1.07.15-1.61.36-2.39,1.3-2.48,3.07-.04.9,0,1.8,0,2.7,0,8.76,0,17.53,0,26.29,0,2.58,1.42,4.58,3.72,5.28.48.15.97.22,1.48.22,4.53,0,9.05,0,13.58.07.96.02,1.92-.06,2.87-.23,2.29-.4,3.69-1.86,4.62-3.87.46-.98.79-2,1.13-3.02.76-2.29,2.73-3.9,4.89-4.01,3.19-.17,5.74,2.14,5.75,5.34.03,9.7.02,19.41,0,29.11,0,2.66-1.85,4.87-4.34,5.3-2.69.46-5.26-1.05-6.2-3.69-.49-1.37-.92-2.76-1.63-4.04-1.14-2.07-2.93-3.02-5.22-3.2-1.64-.13-3.28-.05-4.92-.04-3.42.03-6.85.03-10.27.03-3.19,0-5.44,2.24-5.44,5.43,0,8.66,0,17.32.02,25.99,0,1.61.06,3.24.53,4.81.43,1.43,1.29,2.45,2.66,3.05,1.6.7,3.31.92,5.02,1.06,1.23.1,2.43.23,3.47.97,1.68,1.19,2.45,3.26,1.91,5.17-.56,2-2.21,3.31-4.39,3.49Z"/>
</svg>