<svg width="132" height="60" viewBox="0 0 132 60" fill="none" xmlns="http://www.w3.org/2000/svg">
<g clip-path="url(#clip0_5363_160764)">
<path d="M7.87271 0L0 46.9146H4.77935L12.6521 0H7.87271Z" fill="#00B0F2"/>
<path d="M22.6465 11.6052C18.9959 11.6052 15.8311 13.4358 13.5808 16.8108C10.6303 21.3156 8.72998 28.5591 8.72998 35.5881C8.72998 43.1176 11.9591 47.5437 17.5814 47.5437C25.5899 47.5437 31.3551 37.769 31.3551 24.0543C31.3551 15.967 28.3332 11.6052 22.6394 11.6052H22.6465ZM24.0539 37.3471C22.5751 41.43 20.4676 43.5394 17.9386 43.5394C15.1953 43.5394 13.6522 40.9367 13.6522 36.439C13.6522 31.9413 14.7738 25.3271 16.3241 21.3156C17.66 17.6617 19.8389 15.6167 22.4393 15.6167C25.1826 15.6167 26.4471 17.8691 26.4471 22.7171C26.4471 27.9942 25.6041 33.0568 24.061 37.3471H24.0539Z" fill="#00B0F2"/>
<path d="M62.2173 0H57.438L56.5521 5.27708C55.6377 5.06257 55.1448 4.99106 54.3018 4.99106C50.5797 4.99106 48.7509 6.8931 47.2721 12.2345C45.4432 11.7412 44.8145 11.6053 43.6215 11.6053C37.1561 11.6053 32.4482 17.0182 32.4482 24.5477C32.4482 27.4294 33.2198 29.6818 34.9058 31.7912C31.1123 33.9721 29.5692 36.296 29.5692 39.5996C29.5692 41.566 30.0621 42.8316 31.3981 44.3118C27.7475 46.4212 26.3401 48.5306 26.3401 52.0486C26.3401 57.1827 30.2764 60 37.4419 60C45.4503 60 50.6512 55.8455 50.6512 49.5173C50.6512 48.5592 50.5083 47.7154 50.3083 46.9146H54.3518L62.2173 0ZM43.1214 15.6167C45.7932 15.6167 47.1292 17.7976 47.1292 22.0164C47.1292 27.7869 45.0217 31.305 41.6497 31.305C38.8421 31.305 37.3633 28.9811 37.3633 24.6907C37.3633 19.3422 39.7494 15.6167 43.1285 15.6167H43.1214ZM37.992 56.2746C33.3555 56.2746 30.898 54.5155 30.898 51.069C30.898 48.4662 31.9481 46.7072 34.1271 45.6561C35.6702 46.0064 36.8704 46.0779 39.8208 46.0779C42.2141 46.0779 43.0571 46.221 43.9715 46.7072C45.0931 47.3364 45.729 48.6092 45.729 50.1537C45.729 53.8792 42.707 56.2746 37.9991 56.2746H37.992ZM49.801 45.4987C48.4222 42.5885 45.3075 41.0726 40.4495 41.0726C36.5846 41.0726 36.3703 41.0011 35.463 40.5077C34.5486 40.0143 34.1271 39.099 34.1271 37.9764C34.1271 36.3532 35.0415 34.8087 36.5132 33.7576C38.2706 34.8802 39.678 35.3093 41.6426 35.3093C47.615 35.3093 52.1157 29.6103 52.1157 21.9449C52.1157 18.8488 51.2727 16.389 49.5867 14.4869C50.5726 10.6185 51.5513 9.56739 54.2946 9.56739C54.859 9.56739 55.2091 9.56739 55.7734 9.7104V9.6961L55.8092 9.7104L49.801 45.5059V45.4987Z" fill="#00B0F2"/>
<path d="M62.4316 12.2417L56.595 46.9146H61.3743L67.211 12.2417H62.4316Z" fill="#00B0F2"/>
<path d="M81.6133 11.6054C78.0985 11.6054 75.9195 13.2214 73.2477 17.9336L74.1621 12.2346H69.5971L63.7676 46.9075H68.5469L71.0759 31.9915C72.0618 26.0852 73.1119 22.5671 74.7979 19.8213C76.4839 17.0827 78.3128 15.6025 80.1417 15.6025C82.1063 15.6025 83.1636 17.0112 83.1636 19.6139C83.1636 21.373 82.9564 23.4824 82.3206 27.2078L79.0201 46.9003H83.6565L86.8213 28.0516C87.5214 23.8328 87.8786 20.7366 87.8786 18.9776C87.8786 14.2654 85.5568 11.5911 81.6276 11.5911L81.6133 11.6054Z" fill="#00B0F2"/>
<path d="M132 12.5991C132 10.4397 130.25 8.68066 128.085 8.68066C125.921 8.68066 124.17 10.4325 124.17 12.5991C124.17 12.6206 124.185 12.6349 124.185 12.6564C122.949 11.9914 121.548 11.6052 119.977 11.6052C114.426 11.6052 110.275 15.967 110.275 21.7304C110.275 26.2352 111.961 28.6235 117.162 31.2262C121.027 33.1926 122.22 34.7443 122.22 37.6975C122.22 41.2155 120.184 43.5323 117.019 43.5323C113.854 43.5323 111.997 41.4443 110.925 37.0468H104.067C102.038 41.666 100.109 43.5323 97.323 43.5323C93.6724 43.5323 91.915 40.4361 91.915 34.2509C91.915 32.8423 91.915 31.9985 92.0579 30.168H109.204C109.554 26.5856 109.696 24.8909 109.696 23.2034C109.696 15.6095 106.603 11.5981 100.845 11.5981C97.1944 11.5981 94.0296 13.3571 91.5006 16.8752C88.7573 20.6006 86.9285 27.5652 86.9285 34.1079C86.9285 42.6885 90.5862 47.5437 96.9087 47.5437C101.431 47.5437 104.81 45.0196 107.182 39.9213C108.875 45.0911 111.968 47.5437 116.805 47.5437C122.991 47.5437 127.135 43.3249 127.135 36.9896C127.135 32.6277 125.235 29.7461 120.813 27.3507C118.703 26.2257 117.367 25.4296 116.805 24.9624C115.54 23.9041 114.833 22.4311 114.833 20.8151C114.833 17.8619 116.869 15.6095 119.541 15.6095C122.349 15.6095 123.549 16.8037 125.02 21.237L128.957 19.4064C128.507 18.1336 128.128 17.1969 127.749 16.439C127.864 16.4461 127.957 16.5033 128.071 16.5033C130.228 16.5033 131.986 14.7515 131.986 12.5848L132 12.5991ZM100.359 15.6167C103.381 15.6167 104.86 17.7976 104.86 22.5098C104.86 23.568 104.789 24.4118 104.653 26.1637H92.7723C94.1796 18.9917 96.5657 15.6167 100.359 15.6167ZM127.571 12.9066L127.299 14.5298H126.435L127.128 10.4182H128.378C129.264 10.4182 129.643 10.7901 129.643 11.5266C129.643 12.1415 129.414 12.5491 128.864 12.7565L129.321 14.5298H128.392L127.999 12.9066H127.571Z" fill="#00B0F2"/>
<path d="M128.742 11.5124C128.742 11.1691 128.564 11.0762 128.207 11.0762H127.878L127.685 12.2274H128.042C128.485 12.2274 128.735 11.9771 128.735 11.5124H128.742Z" fill="#00B0F2"/>
<path d="M64.4961 0L63.353 6.34251H68.1324L69.2754 0H64.4961Z" fill="#00B0F2"/>
</g>
<defs>
<clipPath id="clip0_5363_160764">
<rect width="132" height="60" fill="white"/>
</clipPath>
</defs>
</svg>
