<svg width="60" height="60" viewBox="0 0 60 60" fill="none" xmlns="http://www.w3.org/2000/svg">
<path d="M59.4696 30.0005C59.4695 28.3732 58.8735 26.8022 57.794 25.5837C56.7145 24.3652 55.2261 23.5834 53.6094 23.3857C51.9927 23.1881 50.3595 23.5883 49.0178 24.5108C47.676 25.4333 46.7185 26.8144 46.3257 28.3936H13.6805C13.2879 26.8134 12.3301 25.4313 10.9878 24.5081C9.64547 23.5848 8.01141 23.1842 6.39381 23.3818C4.77621 23.5794 3.28688 24.3616 2.20673 25.5807C1.12658 26.7999 0.530273 28.3718 0.530273 30C0.530273 31.6282 1.12658 33.2001 2.20673 34.4193C3.28688 35.6384 4.77621 36.4206 6.39381 36.6182C8.01141 36.8158 9.64547 36.4151 10.9878 35.4919C12.3301 34.5686 13.2879 33.1866 13.6805 31.6063H46.3257C46.7185 33.1855 47.6759 34.5665 49.0176 35.4891C50.3592 36.4116 51.9923 36.8118 53.6089 36.6143C55.2255 36.4168 56.7139 35.6352 57.7935 34.4169C58.8731 33.1985 59.4693 31.6277 59.4696 30.0005ZM7.20701 33.4553C6.5234 33.4551 5.85519 33.2524 5.28687 32.8728C4.71855 32.4932 4.27563 31.9538 4.01412 31.3227C3.7526 30.6917 3.68423 29.9973 3.81765 29.3275C3.95106 28.6576 4.28028 28.0423 4.76366 27.5593C5.24705 27.0764 5.86291 26.7474 6.53338 26.6142C7.20385 26.4809 7.89882 26.5492 8.53043 26.8104C9.16205 27.0717 9.70194 27.5143 10.0819 28.0821C10.4618 28.6499 10.6647 29.3175 10.6649 30.0005C10.6646 30.9167 10.3002 31.7952 9.65179 32.4431C9.00337 33.0909 8.12401 33.455 7.20701 33.4553ZM52.7912 33.4553C52.1075 33.4551 51.4393 33.2524 50.871 32.8728C50.3027 32.4932 49.8598 31.9538 49.5983 31.3227C49.3367 30.6917 49.2684 29.9973 49.4018 29.3275C49.5352 28.6576 49.8644 28.0423 50.3478 27.5593C50.8312 27.0764 51.447 26.7474 52.1175 26.6142C52.788 26.4809 53.483 26.5492 54.1146 26.8104C54.7462 27.0717 55.2861 27.5143 55.666 28.0821C56.0459 28.6499 56.2488 29.3175 56.249 30.0005C56.2487 30.9167 55.8843 31.7952 55.2359 32.4431C54.5875 33.0909 53.7082 33.455 52.7912 33.4553Z" fill="white"/>
</svg>
